<mxfile host="app.diagrams.net" agent="Mozilla/5.0 (Windows NT 10.0; Win64; x64) AppleWebKit/537.36 (KHTML, like Gecko) Chrome/131.0.0.0 Safari/537.36 Edg/131.0.0.0" version="24.9.1">
  <diagram name="第 1 页" id="YTN5t03ZE7oSlvA83yzv">
    <mxGraphModel dx="951" dy="546" grid="1" gridSize="10" guides="1" tooltips="1" connect="1" arrows="1" fold="1" page="1" pageScale="1" pageWidth="827" pageHeight="1169" math="0" shadow="0">
      <root>
        <mxCell id="0" />
        <mxCell id="1" parent="0" />
        <mxCell id="3tO1dww3Jabi91UzTI4P-1" value="鲁&lt;div&gt;棒&lt;/div&gt;&lt;div&gt;多&lt;/div&gt;&lt;div&gt;目&lt;/div&gt;&lt;div&gt;视&lt;/div&gt;&lt;div&gt;觉&lt;/div&gt;&lt;div&gt;S&lt;/div&gt;&lt;div&gt;L&lt;/div&gt;&lt;div&gt;A&lt;/div&gt;&lt;div&gt;M&lt;/div&gt;&lt;div&gt;算&lt;/div&gt;&lt;div&gt;法&lt;/div&gt;&lt;div&gt;研&lt;/div&gt;&lt;div&gt;究&lt;/div&gt;" style="rounded=0;html=1;align=center;horizontal=1;fontFamily=Times New Roman;verticalAlign=middle;" vertex="1" parent="1">
          <mxGeometry x="90" y="220" width="50" height="520" as="geometry" />
        </mxCell>
        <mxCell id="3tO1dww3Jabi91UzTI4P-7" style="edgeStyle=orthogonalEdgeStyle;rounded=0;orthogonalLoop=1;jettySize=auto;html=1;exitX=1;exitY=0.25;exitDx=0;exitDy=0;" edge="1" parent="1" source="3tO1dww3Jabi91UzTI4P-1" target="3tO1dww3Jabi91UzTI4P-3">
          <mxGeometry relative="1" as="geometry" />
        </mxCell>
        <mxCell id="3tO1dww3Jabi91UzTI4P-3" value="基于深度学习的算法初始化方法" style="rounded=0;whiteSpace=wrap;html=1;" vertex="1" parent="1">
          <mxGeometry x="220" y="320" width="120" height="60" as="geometry" />
        </mxCell>
        <mxCell id="3tO1dww3Jabi91UzTI4P-8" style="edgeStyle=orthogonalEdgeStyle;rounded=0;orthogonalLoop=1;jettySize=auto;html=1;exitX=1;exitY=0.5;exitDx=0;exitDy=0;" edge="1" source="3tO1dww3Jabi91UzTI4P-1" parent="1" target="3tO1dww3Jabi91UzTI4P-9">
          <mxGeometry relative="1" as="geometry">
            <mxPoint x="230" y="480" as="sourcePoint" />
          </mxGeometry>
        </mxCell>
        <mxCell id="3tO1dww3Jabi91UzTI4P-9" value="关键帧挑选方法" style="rounded=0;whiteSpace=wrap;html=1;" vertex="1" parent="1">
          <mxGeometry x="220" y="450" width="120" height="60" as="geometry" />
        </mxCell>
        <mxCell id="3tO1dww3Jabi91UzTI4P-11" style="edgeStyle=orthogonalEdgeStyle;rounded=0;orthogonalLoop=1;jettySize=auto;html=1;exitX=1;exitY=0.75;exitDx=0;exitDy=0;" edge="1" parent="1" source="3tO1dww3Jabi91UzTI4P-1" target="3tO1dww3Jabi91UzTI4P-10">
          <mxGeometry relative="1" as="geometry" />
        </mxCell>
        <mxCell id="3tO1dww3Jabi91UzTI4P-10" value="多目联合优化算法" style="rounded=0;whiteSpace=wrap;html=1;" vertex="1" parent="1">
          <mxGeometry x="220" y="580" width="120" height="60" as="geometry" />
        </mxCell>
        <mxCell id="3tO1dww3Jabi91UzTI4P-12" value="Transformer神经网络" style="rounded=0;whiteSpace=wrap;html=1;" vertex="1" parent="1">
          <mxGeometry x="380" y="300" width="120" height="30" as="geometry" />
        </mxCell>
        <mxCell id="3tO1dww3Jabi91UzTI4P-13" value="" style="strokeWidth=2;html=1;shape=mxgraph.flowchart.annotation_2;align=left;labelPosition=right;pointerEvents=1;" vertex="1" parent="1">
          <mxGeometry x="550" y="140" width="50" height="100" as="geometry" />
        </mxCell>
        <mxCell id="3tO1dww3Jabi91UzTI4P-14" value="位姿与深度初始化" style="rounded=0;whiteSpace=wrap;html=1;" vertex="1" parent="1">
          <mxGeometry x="380" y="360" width="120" height="30" as="geometry" />
        </mxCell>
      </root>
    </mxGraphModel>
  </diagram>
</mxfile>
